<?xml version="1.0"?>
<svg version="1.1" id="圖層_1" xmlns="http://www.w3.org/2000/svg" x="0" y="0" viewBox="0 0 100 100" xml:space="preserve"><path d="M91.982 14.521a2.54 2.54 0 0 0-3.473-.544C78.087 21.31 68.232 29.585 59.221 38.8a201.7 201.7 0 0 0-18.366 21.638 2.533 2.533 0 0 1-3.931.203c-2.356-2.607-4.903-5.026-7.638-7.188-5.541-4.41-11.757-7.741-18.184-10.049a2.543 2.543 0 0 0-3.21 1.406l-.193.461c-.487 1.163-.054 2.524 1.038 3.153 5.472 3.153 10.353 7.072 14.35 11.642 4.476 5.087 7.849 10.943 10.274 17.171l2.97 7.628c.794 2.04 3.628 2.181 4.621.229l3.836-7.546c5.881-11.57 12.93-22.599 21.099-32.843 7.672-9.635 16.326-18.568 25.734-26.734a2.53 2.53 0 0 0 .361-3.45z" fill="#849b87"/><metadata xmlns:d="https://loading.io/stock/"><d:name>check</d:name><d:tags>ok,ready,success,pass,complete,finish,done,check,form</d:tags><d:license>free</d:license><d:slug>2iqi5z</d:slug></metadata></svg>